<svg width="25" height="24" viewBox="0 0 25 24" fill="none" xmlns="http://www.w3.org/2000/svg">
<g clip-path="url(#clip0_594_134)">
<path d="M12.5037 7.95708C10.2323 7.95708 8.40011 9.76059 8.40011 11.9965C8.40011 14.2325 10.2323 16.036 12.5037 16.036C14.7751 16.036 16.6073 14.2325 16.6073 11.9965C16.6073 9.76059 14.7751 7.95708 12.5037 7.95708ZM12.5037 14.6227C11.0358 14.6227 9.83583 13.445 9.83583 11.9965C9.83583 10.5481 11.0323 9.37036 12.5037 9.37036C13.9751 9.37036 15.1715 10.5481 15.1715 11.9965C15.1715 13.445 13.9715 14.6227 12.5037 14.6227ZM17.7322 7.79184C17.7322 8.31567 17.3037 8.73403 16.7751 8.73403C16.243 8.73403 15.818 8.31216 15.818 7.79184C15.818 7.27153 16.2465 6.84966 16.7751 6.84966C17.3037 6.84966 17.7322 7.27153 17.7322 7.79184ZM20.4501 8.74809C20.3894 7.48598 20.0965 6.36802 19.1572 5.44692C18.2215 4.52583 17.0858 4.23755 15.8037 4.17427C14.4823 4.10044 10.5215 4.10044 9.20011 4.17427C7.92154 4.23403 6.78583 4.52231 5.84654 5.44341C4.90726 6.3645 4.61797 7.48247 4.55369 8.74458C4.47869 10.0454 4.47869 13.9442 4.55369 15.245C4.6144 16.5071 4.90726 17.625 5.84654 18.5461C6.78583 19.4672 7.91797 19.7555 9.20011 19.8188C10.5215 19.8926 14.4823 19.8926 15.8037 19.8188C17.0858 19.759 18.2215 19.4707 19.1572 18.5461C20.093 17.625 20.3858 16.5071 20.4501 15.245C20.5251 13.9442 20.5251 10.0489 20.4501 8.74809ZM18.743 16.6407C18.4644 17.3297 17.9251 17.8606 17.2215 18.1383C16.168 18.5497 13.668 18.4547 12.5037 18.4547C11.3394 18.4547 8.83583 18.5461 7.78583 18.1383C7.08583 17.8641 6.54654 17.3332 6.2644 16.6407C5.84654 15.6036 5.94297 13.1426 5.94297 11.9965C5.94297 10.8504 5.85011 8.38598 6.2644 7.35239C6.54297 6.66333 7.08226 6.13247 7.78583 5.85474C8.8394 5.44341 11.3394 5.53833 12.5037 5.53833C13.668 5.53833 16.1715 5.44692 17.2215 5.85474C17.9215 6.12895 18.4608 6.65981 18.743 7.35239C19.1608 8.3895 19.0644 10.8504 19.0644 11.9965C19.0644 13.1426 19.1608 15.6071 18.743 16.6407Z" fill="white"/>
</g>
<defs>
<clipPath id="clip0_594_134">
<rect width="16" height="18" fill="white" transform="translate(4.50012 3)"/>
</clipPath>
</defs>
</svg>
