<svg width="25" height="24" viewBox="0 0 25 24" fill="none" xmlns="http://www.w3.org/2000/svg">
<g clip-path="url(#clip0_594_138)">
<path d="M8.13281 19V8.87953H4.70251V19H8.13281ZM6.4181 7.49692C7.61431 7.49692 8.35889 6.71978 8.35889 5.74862C8.3366 4.75556 7.61436 4 6.4408 4C5.26743 4 4.50012 4.75558 4.50012 5.74862C4.50012 6.71983 5.24452 7.49692 6.39571 7.49692H6.418H6.4181ZM10.0315 19H13.4618V13.3482C13.4618 13.0458 13.4841 12.7436 13.5746 12.5274C13.8226 11.923 14.3871 11.2971 15.3346 11.2971C16.5759 11.2971 17.0725 12.2252 17.0725 13.5857V18.9999H20.5026V13.1969C20.5026 10.0883 18.8103 8.64193 16.5533 8.64193C14.7028 8.64193 13.8903 9.65626 13.439 10.3471H13.4619V8.87932H10.0315C10.0766 9.82897 10.0315 18.9998 10.0315 18.9998L10.0315 19Z" fill="white"/>
</g>
<defs>
<clipPath id="clip0_594_138">
<rect width="16" height="15" fill="white" transform="translate(4.50012 4)"/>
</clipPath>
</defs>
</svg>
