<svg width="25" height="24" viewBox="0 0 25 24" fill="none" xmlns="http://www.w3.org/2000/svg">
<g clip-path="url(#clip0_594_142)">
<path d="M21.4999 6.7049C20.8258 6.98937 20.1109 7.1761 19.3788 7.25887C20.1414 6.82346 20.7269 6.13398 21.0026 5.31247C20.2777 5.72228 19.4846 6.01101 18.6576 6.1662C17.9839 5.48248 17.0242 5.05518 15.962 5.05518C13.9225 5.05518 12.269 6.63041 12.269 8.57326C12.269 8.84904 12.3017 9.11752 12.3646 9.37508C9.29546 9.22831 6.57436 7.82771 4.75292 5.69918C4.4351 6.21878 4.253 6.82319 4.253 7.46786C4.253 8.68848 4.905 9.76527 5.89585 10.3962C5.3094 10.3787 4.73587 10.2278 4.22311 9.95611C4.2229 9.97085 4.2229 9.98559 4.2229 10.0004C4.2229 11.705 5.49584 13.1269 7.18517 13.4501C6.64136 13.591 6.07095 13.6117 5.5175 13.5104C5.98739 14.9082 7.35125 15.9253 8.96717 15.9537C7.7033 16.8973 6.11093 17.4598 4.38082 17.4598C4.0827 17.4598 3.78879 17.4431 3.49988 17.4106C5.13415 18.4088 7.07527 18.9913 9.16074 18.9913C15.9534 18.9913 19.6678 13.6303 19.6678 8.98127C19.6678 8.82868 19.6643 8.67695 19.6571 8.5261C20.3801 8.02819 21.0041 7.41147 21.4999 6.7049Z" fill="white"/>
</g>
<defs>
<clipPath id="clip0_594_142">
<rect width="18" height="14" fill="white" transform="translate(3.49988 5)"/>
</clipPath>
</defs>
</svg>
